<?xml version="1.0" encoding="UTF-8" standalone="no"?>
<!-- Created with Inkscape (http://www.inkscape.org/) -->

<svg
   width="210mm"
   height="297mm"
   viewBox="0 0 210 297"
   version="1.1"
   id="svg1"
   sodipodi:docname="bndy_textlogo.svg"
   inkscape:version="1.3.2 (091e20e, 2023-11-25, custom)"
   xmlns:inkscape="http://www.inkscape.org/namespaces/inkscape"
   xmlns:sodipodi="http://sodipodi.sourceforge.net/DTD/sodipodi-0.dtd"
   xmlns="http://www.w3.org/2000/svg"
   xmlns:svg="http://www.w3.org/2000/svg">
  <sodipodi:namedview
     id="namedview1"
     pagecolor="#ffffff"
     bordercolor="#000000"
     borderopacity="0.25"
     inkscape:showpageshadow="2"
     inkscape:pageopacity="0.0"
     inkscape:pagecheckerboard="0"
     inkscape:deskcolor="#d1d1d1"
     inkscape:document-units="mm"
     inkscape:zoom="8.0328441"
     inkscape:cx="177.70792"
     inkscape:cy="64.42301"
     inkscape:window-width="1536"
     inkscape:window-height="889"
     inkscape:window-x="-8"
     inkscape:window-y="-8"
     inkscape:window-maximized="1"
     inkscape:current-layer="layer1" />
  <defs
     id="defs1">
    <rect
       x="80.368607"
       y="74.118693"
       width="11.003369"
       height="18.661714"
       id="rect3" />
  </defs>
  <g
     inkscape:label="Layer 1"
     inkscape:groupmode="layer"
     id="layer1">
    <path
       id="text9"
       style="font-weight:bold;font-size:14.1111px;line-height:0;font-family:'Modulus Pro';-inkscape-font-specification:'Modulus Pro Bold';letter-spacing:-0.127px;fill:#ff9800;fill-rule:evenodd;stroke-width:0.264583"
       d="M 25.940535 11.202417 C 25.531314 11.202417 25.178308 11.569058 25.178308 12.006502 L 25.178308 17.665072 L 25.178308 17.693494 L 25.178308 17.763774 C 25.178308 19.612327 26.688207 21.122225 28.536759 21.122225 C 29.239802 21.122225 29.890309 20.907053 30.428117 20.539832 C 30.535475 20.855291 30.818437 21.084501 31.161922 21.084501 C 31.571144 21.084501 31.90968 20.717343 31.90968 20.279899 L 31.90968 17.838704 L 31.90968 17.782377 L 31.90968 17.740002 C 31.90968 15.905561 30.399781 14.381551 28.551229 14.381551 C 27.866445 14.381551 27.231762 14.587998 26.702246 14.939657 L 26.702246 12.006502 C 26.702246 11.569058 26.363868 11.202417 25.940535 11.202417 z M 45.134713 11.21947 C 44.697269 11.21947 44.372485 11.586629 44.372485 12.024072 L 44.372485 14.973246 C 43.836264 14.620469 43.215303 14.422892 42.537972 14.422892 C 40.675308 14.422892 39.179521 15.91868 39.179521 17.781344 C 39.179521 19.629896 40.675308 21.139795 42.537972 21.139795 C 44.372413 21.139795 45.896423 19.629896 45.896423 17.781344 L 45.896423 17.711064 L 45.896423 17.682642 L 45.896423 12.024072 C 45.896423 11.586629 45.543934 11.21947 45.134713 11.21947 z M 35.567338 14.380518 C 33.916341 14.380518 32.589742 15.721227 32.589742 17.358114 L 32.589742 20.264913 C 32.589742 20.730578 32.970694 21.09742 33.422249 21.09742 C 33.887915 21.09742 34.254757 20.730578 34.254757 20.264913 L 34.254757 17.358114 C 34.254757 16.652559 34.847673 16.045532 35.567338 16.045532 C 36.287003 16.045532 36.879403 16.652559 36.879403 17.358114 L 36.879403 20.264913 C 36.879403 20.730578 37.260714 21.09742 37.726379 21.09742 C 38.177934 21.09742 38.558887 20.730578 38.558887 20.264913 L 38.558887 17.358114 C 38.558887 15.721227 37.204223 14.380518 35.567338 14.380518 z M 47.570223 14.406356 C 47.461965 14.412529 47.353685 14.440772 47.251379 14.493689 C 46.828047 14.691244 46.6585 15.199129 46.856055 15.60835 L 49.113798 20.392037 L 48.168636 22.508704 C 47.985192 22.917925 48.154582 23.425968 48.577913 23.609412 C 48.690802 23.665862 48.803705 23.694161 48.944816 23.694161 C 49.25526 23.694161 49.551463 23.510579 49.692574 23.200134 L 53.0934 15.60835 C 53.290956 15.185017 53.093344 14.677133 52.684123 14.493689 C 52.246679 14.282022 51.766659 14.479119 51.554993 14.90245 L 50.003149 18.374072 L 48.36604 14.874544 C 48.217873 14.567628 47.894998 14.387835 47.570223 14.406356 z M 28.536759 16.056384 C 29.468092 16.056384 30.244149 16.832443 30.244149 17.763774 C 30.244149 18.055511 30.170099 18.329604 30.040544 18.569409 C 29.748619 19.089849 29.192557 19.447392 28.551229 19.447392 C 27.619897 19.447392 26.84384 18.671334 26.84384 17.740002 C 26.84384 17.340751 26.987318 16.970303 27.223661 16.677018 C 27.536454 16.299776 28.007717 16.056384 28.536759 16.056384 z M 42.537972 16.073954 C 43.469303 16.073954 44.245878 16.850012 44.245878 17.781344 C 44.245878 18.726787 43.469303 19.488733 42.537972 19.488733 C 41.60664 19.488733 40.830583 18.726787 40.830583 17.781344 C 40.830583 16.850012 41.60664 16.073954 42.537972 16.073954 z " />
    <text
       xml:space="preserve"
       style="font-style:normal;font-variant:normal;font-weight:bold;font-stretch:normal;font-size:14.1111px;line-height:0;font-family:'Modulus Pro';-inkscape-font-specification:'Modulus Pro Bold';letter-spacing:-0.127px;fill:#ff9800;fill-opacity:1;fill-rule:evenodd;stroke-width:0.264583"
       x="29.413359"
       y="26.778341"
       id="text11"><tspan
         sodipodi:role="line"
         id="tspan11"
         style="stroke-width:0.264583"
         x="29.413359"
         y="26.778341" /></text>
    <text
       xml:space="preserve"
       style="font-style:normal;font-variant:normal;font-weight:bold;font-stretch:normal;font-size:14.1111px;line-height:0;font-family:'Modulus Pro';-inkscape-font-specification:'Modulus Pro Bold';letter-spacing:-0.127px;fill:#ff9800;fill-opacity:1;fill-rule:evenodd;stroke-width:0.264583"
       x="59.45253"
       y="20.190804"
       id="text12"><tspan
         sodipodi:role="line"
         id="tspan12"
         style="stroke-width:0.264583"
         x="59.45253"
         y="20.190804" /></text>
  </g>
</svg>
